<?xml version="1.0" encoding="utf-8"?>
<!-- Generator: Adobe Illustrator 27.4.1, SVG Export Plug-In . SVG Version: 6.00 Build 0)  -->
<svg version="1.1" id="Layer_1" xmlns="http://www.w3.org/2000/svg" xmlns:xlink="http://www.w3.org/1999/xlink" x="0px" y="0px"
	 viewBox="0 0 792 612" style="enable-background:new 0 0 792 612;" xml:space="preserve">
<style type="text/css">
	.st0{fill:#1B1A19;}
</style>
<path class="st0" d="M510.9,15.6c0-8.6,7-15.6,15.6-15.6h145.9c8.6,0,15.6,7,15.6,15.6v172.2c0,8.6-7,15.6-15.6,15.6H526.5
	c-8.6,0-15.6-7-15.6-15.6V15.6z"/>
<path class="st0" d="M119.6,229.7h145.9c8.6,0,15.6,7,15.6,15.6v172.1c0,8.6-7,15.6-15.6,15.6H119.6c-8.6,0-15.6-7-15.6-15.6V245.3
	C103.9,236.7,111,229.7,119.6,229.7z"/>
<path class="st0" d="M324,101.9H470c8.6,0,15.6,7,15.6,15.6v477.2c0,8.6-7,15.6-15.6,15.6H324c-8.6,0-15.6-7-15.6-15.6V117.6
	C308.4,108.9,315.4,101.9,324,101.9z"/>
<path class="st0" d="M526.5,229.7h145.9c8.6,0,15.6,7,15.6,15.6v172.1c0,8.6-7,15.6-15.6,15.6H526.5c-8.6,0-15.6-7-15.6-15.6V245.3
	C510.9,236.7,517.9,229.7,526.5,229.7z"/>
</svg>
